<svg xmlns="http://www.w3.org/2000/svg" class="injected-svg inject-svg logo" viewBox="0 0 123 54.66" width="123" height="54.66" data-name="Calque 1"><path fill="#ffc930" d="M 48.84 33.45 L 68.03 0 H 90.3 v 33.45 H 76.92 V 11.18 L 63.63 33.45 H 48.84 Z M 41.71 0 L 22.52 33.45 H 0.26 V 0 h 13.37 v 22.27 L 26.93 0 h 14.78 Z M 46.99 0 h 15.85 L 43.39 33.45 H 27.54 L 46.99 0 Z" /><path fill="#ea212e" d="M 109.68 33.39 s -0.2 -7.47 -0.2 -8 s 0.27 -0.62 0.7 -0.43 l 6.48 1.44 l -0.9 -3 a 1.19 1.19 0 0 1 0.35 -1.17 c 0.35 -0.39 6.89 -6.05 6.89 -6.05 l -1.78 -1.36 a 0.86 0.86 0 0 1 -0.18 -1.09 c 0.29 -0.62 1.63 -3.44 1.63 -3.44 l -3.67 0.91 a 0.86 0.86 0 0 1 -1 -0.38 l -1 -2 s -1.83 1.71 -3.34 3.1 c -0.54 0.51 -1 0 -0.87 -0.51 l 1.63 -7.26 s -2.22 0.59 -2.65 0.69 a 0.86 0.86 0 0 1 -1 -0.56 c -0.29 -0.62 -2.21 -4.28 -2.21 -4.28 s -1.91 3.65 -2.2 4.28 a 0.85 0.85 0 0 1 -1 0.56 c -0.43 -0.1 -2.65 -0.69 -2.65 -0.69 l 1.64 7.26 c 0.12 0.51 -0.32 1 -0.87 0.51 c -1.52 -1.39 -3.35 -3.1 -3.35 -3.1 l -1 2 a 0.85 0.85 0 0 1 -1 0.38 l -3.69 -0.92 l 1.63 3.44 a 0.85 0.85 0 0 1 -0.18 1.09 l -1.77 1.36 s 6.55 5.66 6.9 6.05 a 1.19 1.19 0 0 1 0.35 1.17 l -0.89 3 l 6.52 -1.44 c 0.43 -0.2 0.7 -0.12 0.7 0.43 s -0.19 8 -0.19 8 Z" /><path fill="#231f20" fill-rule="evenodd" d="M 18.46 54.14 c -0.54 -0.17 -1 -0.55 -1 -1.71 v -9.14 c 0 -1.17 0.46 -1.55 1 -1.71 c 0.34 -0.11 0.39 -0.27 0 -0.27 h -3.64 c -0.39 0 -0.34 0.16 0 0.27 c 0.57 0.18 0.86 0.49 0.86 1.75 v 9.07 c 0 1.26 -0.29 1.57 -0.86 1.75 c -0.34 0.11 -0.39 0.27 0 0.27 h 3.64 c 0.39 0 0.34 -0.16 0 -0.27 Z" /><path fill="#231f20" d="M 13.89 41.3 c 0.53 0 0.06 0.24 0.06 0.24 a 3.55 3.55 0 0 0 -0.61 0.28 C 12.64 42.16 12 44 12 44 c -1.54 3.43 -4.59 10.11 -4.73 10.3 s -0.21 0.27 -0.38 0.27 s -0.47 -0.07 -0.69 -0.64 c -1 -2.93 -3.32 -8.55 -3.8 -9.63 c -0.71 -1.55 -0.63 -2.22 -2.08 -2.66 c -0.14 0 -0.62 -0.23 -0.07 -0.33 h 5.57 c 0.42 0.1 -0.34 0.33 -0.34 0.33 c -1 0.25 -1.37 0.84 -1.37 1.49 a 5.85 5.85 0 0 0 0.64 2 c 0.91 2.27 1.85 4.55 2.65 6.8 c 0 0 0.9 -2 1.26 -2.78 l 2.12 -4.79 a 4.9 4.9 0 0 0 0.47 -1.66 a 1.25 1.25 0 0 0 -0.83 -1.13 s -0.74 -0.18 -0.16 -0.3 H 13.91 M 27.31 48.73 c -0.62 0 -1.26 0.07 -1.88 0.07 c -0.11 0 -1.3 0 -1.88 -0.07 l 1.94 -4.83 l 1.83 4.83 Z m -7.82 5.41 c -0.51 0.24 -0.12 0.28 -0.12 0.28 H 23 c 0.44 0 0.19 -0.25 0.19 -0.25 a 1.32 1.32 0 0 1 -1 -1.21 a 5.81 5.81 0 0 1 0.4 -1.39 c 0.22 -0.6 0.46 -1.21 0.69 -1.83 c 0.82 0 1.44 -0.05 2.16 -0.05 s 1.5 0 2.25 0.05 c 0.28 0.77 0.75 2 1 2.76 a 2 2 0 0 1 0.11 0.57 a 0.62 0.62 0 0 1 -0.12 0.41 a 1 1 0 0 1 -0.74 0.59 s -0.53 0.19 -0.3 0.33 h 4.81 c 0.5 -0.1 -0.18 -0.3 -0.18 -0.3 a 1.94 1.94 0 0 1 -1.36 -0.94 a 10.81 10.81 0 0 1 -0.6 -1.48 l -3.82 -10 c -0.11 -0.31 -0.13 -0.38 -0.37 -0.38 s -0.31 0 -0.46 0.38 l -3.47 8.63 c -0.9 2.18 -1.26 2.81 -1.7 3.2 a 2.42 2.42 0 0 1 -0.95 0.61 Z M 55.09 53.54 a 0.82 0.82 0 0 1 -0.72 0.42 c -0.48 0 -0.8 -0.38 -0.8 -1.07 v -4.15 c 0 -0.91 0.23 -2.59 -2.9 -2.59 c -1.59 0 -3 0.54 -3 1.43 a 0.78 0.78 0 0 0 0.75 0.82 c 1.43 0 0.45 -1.87 2 -1.87 c 1.26 0 1.44 1.23 1.44 1.75 c 0 0.91 0 1.23 -0.62 1.55 c -1.13 0.64 -4 0.19 -4 2.61 c 0 1.83 1.92 2.06 2.68 2.06 a 2.91 2.91 0 0 0 1.94 -0.77 a 2.29 2.29 0 0 0 1.9 0.8 a 1.59 1.59 0 0 0 1.55 -0.76 c 0.13 -0.24 -0.17 -0.41 -0.3 -0.21 Z m -3.21 -1.21 a 1.58 1.58 0 0 1 -1.51 1.72 A 1.31 1.31 0 0 1 49 52.74 c 0 -1.47 1.45 -2 2.44 -2.5 l 0.25 -0.13 c 0.13 -0.07 0.16 0 0.16 0.22 v 2 Z M 56.35 42.47 a 1 1 0 0 1 2 0 a 1 1 0 0 1 -1 1 a 1 1 0 0 1 -0.71 -0.29 a 1 1 0 0 1 -0.29 -0.71 Z M 59.43 54.15 c -0.54 -0.17 -1 -0.57 -1 -1.74 v -5.49 c 0 -0.47 0 -0.63 -0.41 -0.57 s -2.48 0.15 -2.78 0.19 s -0.15 0.21 0.15 0.21 c 0.9 0 1.23 0.89 1.3 1.91 v 3.74 c 0 1.26 -0.29 1.57 -0.86 1.75 c -0.34 0.11 -0.39 0.27 0 0.27 h 3.64 c 0.39 0 0.34 -0.16 0 -0.27 Z M 64 54.14 c -0.54 -0.17 -1 -0.59 -1 -1.75 v -3.58 V 42 c 0 -0.47 0 -0.63 -0.41 -0.57 s -2.48 0.15 -2.78 0.19 s -0.15 0.21 0.15 0.21 c 1 0 1.32 1.2 1.32 2.41 V 52.43 c 0 1.26 -0.29 1.57 -0.86 1.75 c -0.34 0.11 -0.39 0.27 0 0.27 H 64 c 0.39 0 0.34 -0.16 0 -0.27 Z" /><path fill="#231f20" d="M 47.55 54.17 a 3.88 3.88 0 0 1 -2.47 -1.75 l -0.54 -0.66 c -0.27 -0.33 -2.22 -2.9 -2.66 -3.45 a 4.54 4.54 0 0 0 2.94 -1.78 a 2.69 2.69 0 0 0 0.42 -1.5 a 3.5 3.5 0 0 0 -1.74 -3 a 5.6 5.6 0 0 0 -3 -0.76 h -2.08 c -0.28 0 -2.5 0.12 -2.79 0.17 s -0.15 0.27 0.15 0.27 c 1 0 1.25 1.18 1.27 2.32 V 49.25 c 0 1.11 -0.12 2.7 -0.12 3 c 0 1.26 -0.29 1.67 -0.86 1.85 c -0.34 0.11 -0.39 0.27 0 0.27 h 3.73 c 0.39 0 0.34 -0.16 0 -0.27 c -0.54 -0.17 -1 -0.67 -1 -1.84 v -3 v -0.81 c 1.2 0 1.26 0.07 2.15 1.19 c 0.58 0.73 3.19 4.22 3.56 4.62 a 0.21 0.21 0 0 0 0.2 0.11 h 2.87 c 0.39 0 0.34 -0.16 0 -0.27 Z M 40 47.94 a 8.89 8.89 0 0 1 -1.2 -0.07 V 42 c 0.47 0 0.79 -0.05 1.19 -0.05 a 3.39 3.39 0 0 1 2.48 0.75 a 3.39 3.39 0 0 1 0.84 2.24 c 0 1.69 -1 3 -3.3 3 Z M 103.63 53.5 a 0.82 0.82 0 0 1 -0.72 0.42 c -0.48 0 -0.79 -0.38 -0.79 -1.07 v -4.16 c 0 -0.92 0.23 -2.59 -2.9 -2.59 c -1.59 0 -3 0.53 -3 1.43 a 0.78 0.78 0 0 0 0.75 0.82 c 1.43 0 0.45 -1.87 2 -1.87 c 1.26 0 1.44 1.23 1.44 1.75 c 0 0.91 0 1.23 -0.62 1.55 c -1.13 0.64 -4 0.19 -4 2.61 c 0 1.83 1.92 2.06 2.68 2.06 a 2.9 2.9 0 0 0 1.94 -0.77 a 2.28 2.28 0 0 0 1.9 0.8 a 1.59 1.59 0 0 0 1.55 -0.76 c 0.13 -0.24 -0.18 -0.4 -0.3 -0.21 Z m -3.21 -1.21 a 1.58 1.58 0 0 1 -1.5 1.71 a 1.31 1.31 0 0 1 -1.35 -1.31 c 0 -1.47 1.45 -2 2.44 -2.5 l 0.25 -0.13 c 0.13 -0.07 0.16 0 0.16 0.22 v 2 Z M 88.6 46.26 l -2.17 0.32 c -0.32 0 -0.3 0.28 0 0.28 c 0.82 0 1.06 1 1.06 1.56 v 3.95 c 0 1.26 -0.29 1.57 -0.86 1.75 c -0.34 0.11 -0.39 0.26 0 0.26 h 3.53 c 0.39 0 0.34 -0.16 0 -0.26 c -0.54 -0.17 -1 -0.59 -1 -1.75 v -2.58 c 0 -2.43 1 -3 2.11 -3 c 1.29 0 1.54 1 1.54 2.15 v 3.42 c 0 1.26 -0.29 1.57 -0.86 1.75 c -0.34 0.11 -0.39 0.26 0 0.26 h 3.64 c 0.39 0 0.34 -0.16 0 -0.26 c -0.54 -0.17 -1 -0.59 -1 -1.75 v -3.42 c 0 -1.41 -0.24 -2.7 -2.37 -2.7 a 4.17 4.17 0 0 0 -2.63 0.72 c -0.23 0.19 -0.36 0.29 -0.4 0 c -0.1 -0.55 -0.09 -0.81 -0.51 -0.73 Z" /><path fill="#231f20" d="M 86.15 53.5 a 0.82 0.82 0 0 1 -0.72 0.42 c -0.48 0 -0.8 -0.38 -0.8 -1.07 v -4.16 c 0 -0.92 0.23 -2.59 -2.9 -2.59 c -1.59 0 -3 0.53 -3 1.43 a 0.78 0.78 0 0 0 0.75 0.82 c 1.43 0 0.45 -1.87 2 -1.87 c 1.26 0 1.44 1.23 1.44 1.75 c 0 0.91 0 1.23 -0.62 1.55 c -1.14 0.64 -4 0.19 -4 2.61 c 0 1.83 1.92 2.06 2.68 2.06 a 2.9 2.9 0 0 0 2.02 -0.77 a 2.28 2.28 0 0 0 1.9 0.8 a 1.59 1.59 0 0 0 1.55 -0.76 a 0.18 0.18 0 1 0 -0.3 -0.21 Z m -3.2 -1.21 A 1.58 1.58 0 0 1 81.44 54 a 1.31 1.31 0 0 1 -1.35 -1.31 c 0 -1.47 1.45 -2 2.44 -2.5 l 0.25 -0.13 c 0.13 -0.07 0.16 0 0.16 0.22 v 2 Z M 112.78 53.91 c -0.63 -0.05 -1.07 -0.72 -1.07 -1.84 v -10.2 c 0 -0.47 0 -0.64 -0.41 -0.57 s -2.48 0.15 -2.78 0.19 s -0.15 0.21 0.15 0.21 c 1 0 1.35 0.82 1.35 2 v 2.79 c 0 0.18 0 0.35 -0.24 0.2 a 3.34 3.34 0 0 0 -1.75 -0.65 a 4 4 0 0 0 -4.35 4.1 c 0 2.92 1.79 4.29 4.3 4.29 a 3.52 3.52 0 0 0 1.87 -0.63 c 0.11 -0.08 0.22 -0.11 0.26 0.16 s 0 0.52 0.49 0.46 s 1.94 -0.29 2.16 -0.29 s 0.24 -0.24 0 -0.25 Z m -4.64 0.13 c -2.26 0 -2.63 -2.75 -2.63 -3.75 c 0 -2.78 1.54 -3.77 2.5 -3.77 a 2 2 0 0 1 1.87 1.7 a 16.69 16.69 0 0 1 0.17 2.82 c 0 0.86 -0.19 3 -1.91 3 Z" /><path fill="#ea212e" d="M 116.57 45.19 v -0.82 c 0 -0.06 0 -0.06 0.07 0 l 0.66 0.15 l -0.09 -0.31 a 0.12 0.12 0 0 1 0 -0.12 l 0.7 -0.62 l -0.18 -0.14 a 0.09 0.09 0 0 1 0 -0.11 l 0.17 -0.35 l -0.38 0.09 a 0.09 0.09 0 0 1 -0.11 0 l -0.1 -0.21 l -0.31 0.25 c -0.05 0.05 -0.1 0 -0.09 -0.05 l 0.17 -0.74 l -0.27 0.07 a 0.09 0.09 0 0 1 -0.1 -0.06 l -0.23 -0.44 l -0.22 0.44 a 0.09 0.09 0 0 1 -0.1 0.06 l -0.27 -0.07 l 0.11 0.79 c 0 0.05 0 0.1 -0.09 0.05 l -0.34 -0.32 l -0.1 0.21 a 0.09 0.09 0 0 1 -0.11 0 l -0.38 -0.09 l 0.17 0.35 a 0.09 0.09 0 0 1 0 0.11 l -0.18 0.14 s 0.67 0.58 0.71 0.62 a 0.12 0.12 0 0 1 0 0.12 l -0.09 0.31 l 0.66 -0.15 h 0.07 v 0.82 Z M 114.58 45.5 v -4.1 h -1.95 v 4.1 h 1.95 Z M 120.25 45.5 v -4.1 h -1.95 v 4.1 h 1.95 Z" /><path fill="#231f20" d="M 77.14 41.48 c -0.13 0.32 -0.13 0.39 -0.43 0.39 a 11.38 11.38 0 0 0 -3 -0.68 c -3.92 0 -6.59 3.19 -6.59 7 a 6.33 6.33 0 0 0 6.22 6.49 a 4.77 4.77 0 0 0 5 -4 c 0.09 -0.5 -0.39 -0.64 -0.5 -0.15 c -0.55 2.33 -2 3.44 -3.86 3.44 c -2.85 0 -4.36 -2.22 -4.36 -5.63 c 0 -4.91 2.37 -6.67 4.13 -6.67 c 2.46 0 3 2 3.63 3.62 c 0.08 0.27 0.14 0.54 0.39 0.51 s 0.17 0 0.17 -0.42 c 0 -0.7 -0.23 -3.08 -0.23 -3.65 s -0.4 -0.51 -0.49 -0.28 Z M 121.1 53.71 c 0.13 -0.24 -0.17 -0.4 -0.3 -0.21 a 0.82 0.82 0 0 1 -0.72 0.42 c -0.48 0 -0.8 -0.38 -0.8 -1.07 v -4.16 c 0 -0.92 0.23 -2.59 -2.9 -2.59 c -1.59 0 -3 0.53 -3 1.43 a 0.78 0.78 0 0 0 0.75 0.82 c 1.43 0 0.45 -1.87 2 -1.87 c 1.26 0 1.44 1.23 1.44 1.75 c 0 0.91 0 1.23 -0.62 1.55 c -1.13 0.64 -4 0.19 -4 2.61 c 0 1.83 1.92 2.06 2.68 2.06 a 2.9 2.9 0 0 0 1.94 -0.77 a 2.29 2.29 0 0 0 1.9 0.8 a 1.59 1.59 0 0 0 1.55 -0.76 Z m -3.5 -1.42 a 1.58 1.58 0 0 1 -1.51 1.71 a 1.31 1.31 0 0 1 -1.35 -1.31 c 0 -1.47 1.45 -2 2.44 -2.5 l 0.25 -0.13 c 0.13 -0.07 0.16 0 0.16 0.22 v 2 Z" /></svg>